<?xml version="1.0" encoding="utf-8"?>
<!-- Generator: Adobe Illustrator 17.0.0, SVG Export Plug-In . SVG Version: 6.00 Build 0)  -->
<!DOCTYPE svg PUBLIC "-//W3C//DTD SVG 1.1//EN" "http://www.w3.org/Graphics/SVG/1.1/DTD/svg11.dtd">
<svg version="1.1" id="Layer_1" xmlns="http://www.w3.org/2000/svg" xmlns:xlink="http://www.w3.org/1999/xlink" x="0px" y="0px"
	 width="878.63px" height="483px" viewBox="0 0 878.63 483" enable-background="new 0 0 878.63 483" xml:space="preserve">
<path display="none" fill="#F1F1F1" d="M134.032,412.703c-19.511,14.544-25.04,40.135-25.04,40.135s26.104,2.009,45.615-12.535
	s25.04-40.135,25.04-40.135S153.542,398.159,134.032,412.703z"/>
<path fill="#F1F1F1" d="M142.159,419.532c-9.377,22.456-32.862,34.028-32.862,34.028s-8.281-24.837,1.096-47.293
	s32.862-34.028,32.862-34.028S151.536,397.076,142.159,419.532z"/>
<path fill="#CACACA" d="M703.502,354.614L703.502,354.614c-2.073-13.964-2.621-28.113-1.633-42.195l1.633-23.307l0,0
	C694.502,307.02,696.536,330.59,703.502,354.614z"/>
<path fill="#CACACA" d="M710.521,358.513L710.521,358.513c-0.998-8.333-1.261-16.737-0.786-25.116l0.786-13.873l0,0
	C706.19,330.183,707.169,344.213,710.521,358.513z"/>
<path fill="#F2F2F2" d="M741.716,375.67v7.798c-0.007,1.289-1.05,2.333-2.339,2.339h-3.899c-0.429-0.002-0.778,0.345-0.78,0.774
	c0,0.002,0,0.004,0,0.006v63.943c-0.007,1.289-1.05,2.333-2.339,2.339h-47.567c-1.292-0.001-2.338-1.048-2.339-2.339v-63.943
	c-0.001-0.43-0.35-0.779-0.78-0.78h-4.679c-1.292-0.001-2.338-1.048-2.339-2.339v-7.798c-0.002-1.29,1.043-2.338,2.333-2.339
	c0.002,0,0.004,0,0.006,0h62.383C740.667,373.335,741.712,374.38,741.716,375.67z"/>
<rect x="682.522" y="387.445" fill="#E6E6E6" width="52.246" height="2.339"/>
<path fill="#E6E6E6" d="M734.698,421.869c-17.483,7.235-35.156,7.315-53.026,0v-16.481c17.203-5.778,35.823-5.778,53.026,0V421.869z
	"/>
<circle id="fff0188c-9915-4c0d-8339-9317a77083e8" fill="#FEB8B8" cx="441.853" cy="99.211" r="70.666"/>
<path id="ac220ed6-7c3f-4d1e-8d82-3295770c496a-18" fill="#2F2E41" d="M507.855,38.246C497.29,21.09,480.752,8.448,461.425,2.754
	l-8.675,6.331v-8.22c-4.642-0.71-9.339-0.984-14.032-0.817l-7.485,6.772V0.61c-22.404,2.784-42.623,14.811-55.763,33.169
	c-16.254,23.432-18.998,56.032-3.011,79.652c4.388-13.487,9.715-26.142,14.104-39.628c3.449,0.47,6.945,0.487,10.399,0.05
	l5.339-12.459l1.492,11.931c16.55-1.441,41.096-4.607,56.785-7.508l-1.526-9.154l9.128,7.606c4.806-1.106,7.66-2.11,7.425-2.877
	c11.668,18.811,25.948,30.826,37.616,49.637C517.652,84.506,522.752,62.451,507.855,38.246z"/>
<path fill="#6C63FF" d="M593.835,280.93c-2.43-14.619-4.936-29.519-11.731-42.689c-4.466-8.626-11.554-16.847-21.11-18.552
	c-1.882-0.168-3.732-0.596-5.497-1.272c-2.8-1.349-40.425-22.827-46.405-26.568c-5.135-3.212-13.24-9.158-17.327-9.158
	c-4.112-0.09-19.878,3.579-81.414-1.231c0,0-16.905,6.663-29.985,14.743c-0.198-0.131-63.869,34.06-66.261,33.97
	c-4.53-0.191-8.741,2.71-11.338,6.362c-2.596,3.652-3.814,8.174-5.089,12.546c13.907,30.97,26.631,61.98,40.539,92.95
	c0.651,1.167,0.997,2.479,1.006,3.815c-0.279,1.386-0.871,2.691-1.73,3.815c-6.82,10.956-6.603,24.736-5.858,37.613
	c0.746,12.877,1.668,26.478-4.087,38.02c-1.565,3.169-3.601,6.069-5.089,9.238c-3.486,7.177-4.746,30.131-2.71,37.842l255.121,7.309
	C569.383,464.602,593.835,280.93,593.835,280.93z"/>
<path id="bb46eb08-8e3e-4ac5-913b-26d221d967b9-19" fill="#FBBEBE" d="M275.625,343.403c-0.509,3.682-0.56,7.414-0.153,11.109
	l3.657,52.513c0.343,4.949,0.681,9.887,1.146,14.824c0.877,9.581,2.188,19.086,3.815,28.578c0.076,2.806,2.41,5.02,5.216,4.949
	c16.096,3.406,32.726,3.27,49.153,2.342c25.067-1.399,89.198-4.046,93.116-9.136s1.635-13.322-3.474-17.438
	s-89.739-14.149-89.739-14.149c0.827-6.553,3.321-12.724,5.688-18.946c4.25-11.035,8.22-22.432,8.297-34.253
	s-4.377-24.25-14.061-31.022c-7.966-5.56-18.221-6.591-27.928-6.362c-7.062,0.203-19.265-1.489-25.716,1.272
	C279.538,329.931,276.579,338.405,275.625,343.403z"/>
<path id="efe93a1e-ccdd-49fd-af5f-e26394aa0937-20" fill="#6C63FF" d="M296.942,250.023c-1.239,1.298-2.2,2.835-2.824,4.518
	c-10.285,23.18-16.36,48.006-17.941,73.316c0.028,1.234-0.257,2.455-0.827,3.55c-0.562,0.728-1.188,1.405-1.87,2.023
	c-2.501,2.965-2.125,7.397,0.84,9.898h0c0.116,0.098,0.234,0.191,0.356,0.281c2.099-3.951,7.125-5.242,11.592-5.586
	c21.389-1.692,42.282,8.259,63.734,7.508c-1.514-5.23-3.691-10.256-4.925-15.548c-5.459-23.502,8.156-49.089-0.191-71.726
	c-1.668-4.53-4.453-8.983-8.843-10.968c-1.818-0.733-3.72-1.237-5.662-1.499c-5.421-0.98-16.212-5.166-21.453-3.486
	c-1.935,0.624-2.697,2.443-4.301,3.542C302.192,247.402,298.961,247.974,296.942,250.023z"/>
<path id="a38c3c09-000b-42b7-8619-0229d8aff5e9-21" fill="#FBBEBE" d="M593.988,327.683c-6.451-2.762-18.653-1.069-25.716-1.272
	c-9.707-0.229-19.962,0.802-27.928,6.362c-9.684,6.772-14.137,19.201-14.061,31.022s4.046,23.218,8.297,34.253
	c2.366,6.222,4.861,12.393,5.688,18.946c0,0-84.63,10.034-89.739,14.149s-7.392,12.348-3.474,17.438s126.173,10.2,142.269,6.794
	c2.806,0.071,5.14-2.143,5.216-4.949c1.627-9.491,2.937-18.996,3.815-28.578c0.465-4.937,0.802-9.874,1.146-14.824l3.657-52.513
	c0.408-3.695,0.356-7.426-0.153-11.109C602.051,338.405,599.092,329.931,593.988,327.683z"/>
<path id="bd3879bf-5d05-49be-b690-c4d97e29a2ab-22" fill="#6C63FF" d="M574.002,245.846c-1.603-1.099-2.366-2.918-4.301-3.542
	c-5.241-1.68-16.032,2.507-21.453,3.486c-1.942,0.262-3.844,0.765-5.662,1.499c-4.389,1.985-7.175,6.438-8.843,10.968
	c-8.347,22.637,5.268,48.224-0.191,71.726c-1.234,5.293-3.411,10.318-4.925,15.548c21.453,0.751,42.346-9.2,63.734-7.508
	c4.467,0.343,9.493,1.635,11.592,5.586c0.122-0.09,0.24-0.184,0.356-0.281c2.965-2.501,3.341-6.933,0.84-9.898l0,0
	c-0.682-0.618-1.308-1.295-1.87-2.023c-0.57-1.095-0.855-2.316-0.827-3.55c-1.58-25.31-7.656-50.136-17.941-73.316
	c-0.624-1.683-1.585-3.22-2.824-4.518C579.669,247.974,576.438,247.402,574.002,245.846z"/>
<circle fill="#FBBEBE" cx="420.924" cy="438.81" r="19.073"/>
<circle fill="#FBBEBE" cx="463.156" cy="438.81" r="19.073"/>
<path fill="#3F3D56" d="M580.888,481.788H318.857c-6.37-0.007-11.532-5.169-11.539-11.539V311.283
	c0.008-6.37,5.17-11.531,11.539-11.539h262.031c6.37,0.007,11.532,5.169,11.539,11.539V470.25
	C592.419,476.619,587.257,481.781,580.888,481.788z"/>
<circle id="bf1cdf42-3b4f-4239-91c9-f6802a29e918" fill="#FFFFFF" cx="449.237" cy="390.766" r="7.635"/>
<polygon fill="#F1F1F1" points="878.63,449.724 0,449.724 0,476.724 51.97,476.724 51.97,483 826.68,483 826.68,476.724 
	878.63,476.724 "/>
<path fill="#6C63FF" d="M376.871,125.549L376.871,125.549c-11.355,0-20.559-9.952-20.559-22.229l0,0V92.205
	c0-12.277,9.205-22.229,20.559-22.229l0,0V125.549z"/>
<path fill="#6C63FF" d="M508.094,69.976L508.094,69.976c11.355,0,20.559,9.952,20.559,22.229v11.115
	c0,12.277-9.205,22.229-20.559,22.229l0,0V69.976z"/>
<path fill="#6C63FF" d="M518.868,93.952h-3.262c0-44.73-33.656-81.121-75.026-81.121c-41.369,0-75.026,36.391-75.026,81.121h-3.262
	c0-46.675,35.12-84.648,78.288-84.648C483.748,9.304,518.868,47.277,518.868,93.952z"/>
</svg>
