<?xml version="1.0" encoding="utf-8"?>
<!-- Generator: Adobe Illustrator 17.0.0, SVG Export Plug-In . SVG Version: 6.00 Build 0)  -->
<!DOCTYPE svg PUBLIC "-//W3C//DTD SVG 1.1//EN" "http://www.w3.org/Graphics/SVG/1.1/DTD/svg11.dtd">
<svg version="1.1" id="Layer_1" xmlns="http://www.w3.org/2000/svg" xmlns:xlink="http://www.w3.org/1999/xlink" x="0px" y="0px"
	 width="612px" height="792px" viewBox="0 0 612 792" enable-background="new 0 0 612 792" xml:space="preserve">
<title>Linktree</title>
<g id="XMLID_1_">
	<g>
		<path fill="#6C63FF" d="M609.37,474.18c8.27,16.53-4.08,35.12-22.69,35.12H469.07v121.76c-0.14,12.5-10.25,22.58-22.74,22.69
			h-74.31c-12.5-0.07-22.57-10.2-22.7-22.69V509.27h33.05c13.34,0.18,24.79-9.51,26.83-22.69c0-4.11,0-8.24-2.07-12.42
			l-99.06-179.52l76.37-142.45c2.46-4.43,6.12-8.09,10.55-10.55c13.11-7.28,29.65-2.56,36.93,10.55L609.4,474.18H609.37z"/>
		<path fill="#6C63FF" d="M227.59,152.19l74.28,142.42L202.8,474.18c-2.04,4.16-2.04,8.27-2.04,12.4
			c2.04,13.18,13.47,22.87,26.83,22.69h32.99v121.79c0,12.39-10.3,22.69-22.69,22.69h-70.18c-12.48-0.12-22.57-10.23-22.67-22.72
			V509.3H25.3c-18.57,0-30.96-18.59-22.7-35.12l177.48-321.99c7.27-13.11,23.8-17.85,36.92-10.58
			C221.45,144.07,225.12,147.74,227.59,152.19z"/>
	</g>
	<g>
	</g>
</g>
</svg>
