<?xml version="1.0" encoding="utf-8"?>
<!-- Generator: Adobe Illustrator 17.0.0, SVG Export Plug-In . SVG Version: 6.00 Build 0)  -->
<!DOCTYPE svg PUBLIC "-//W3C//DTD SVG 1.1//EN" "http://www.w3.org/Graphics/SVG/1.1/DTD/svg11.dtd">
<svg version="1.1" id="Layer_1" xmlns="http://www.w3.org/2000/svg" xmlns:xlink="http://www.w3.org/1999/xlink" x="0px" y="0px"
	 width="612px" height="792px" viewBox="0 0 612 792" enable-background="new 0 0 612 792" xml:space="preserve">
<title>LinkedIn</title>
<g id="XMLID_1_">
	<g>
		<path fill="#6C63FF" d="M612,134.09v523.82c0,24.38-20.4,44.09-45.34,44.09H45.16C20.2,702,0,682.29,0,657.91V134.09
			C0,109.74,20.2,90,45.16,90h521.5C591.6,90,612,109.74,612,134.09z M521.42,611.53v-160.3c0-78.66-16.98-139.1-108.8-139.1
			c-44.2,0-73.78,24.23-85.94,47.18h-1.17V319.5h-87.06v292.03h90.63V467.02c0-38.1,7.21-74.95,54.47-74.95
			c46.53,0,47.22,43.58,47.22,77.45v142.01h90.63H521.42z M181.53,611.53V319.5H90.65v292.03H181.53z M188.73,226.88
			c0-29.01-23.57-52.6-52.64-52.6c-29.14,0-52.6,23.59-52.6,52.6c0,29.05,23.43,52.66,52.6,52.66
			C165.14,279.54,188.73,255.93,188.73,226.88z"/>
	</g>
	<g>
	</g>
</g>
</svg>
