<?xml version="1.0" encoding="utf-8"?>
<!-- Generator: Adobe Illustrator 17.0.0, SVG Export Plug-In . SVG Version: 6.00 Build 0)  -->
<!DOCTYPE svg PUBLIC "-//W3C//DTD SVG 1.1//EN" "http://www.w3.org/Graphics/SVG/1.1/DTD/svg11.dtd">
<svg version="1.1" id="Layer_1" xmlns="http://www.w3.org/2000/svg" xmlns:xlink="http://www.w3.org/1999/xlink" x="0px" y="0px"
	 width="612px" height="792px" viewBox="0 0 612 792" enable-background="new 0 0 612 792" xml:space="preserve">
<title>Visual Studio Code</title>
<g id="XMLID_1_">
	<g>
		<path fill="#6C63FF" d="M612,601.53c0.01,14.69-8.39,28.09-21.62,34.48l-126.02,60.61c-14.59,7.03-32.02,4.06-43.46-7.4
			L179.67,469.16L74.61,548.92c-9.78,7.42-23.46,6.81-32.54-1.45L8.34,516.84c-0.59-0.53-1.16-1.1-1.69-1.69
			c-9.49-10.4-8.75-26.53,1.66-36.02L99.42,396L8.31,312.87c-0.59-0.54-1.15-1.1-1.69-1.69c-9.47-10.42-8.7-26.55,1.72-36.02
			l33.71-30.66c9.08-8.26,22.76-8.87,32.54-1.45l105.06,79.77l241.23-220.07c11.45-11.46,28.88-14.42,43.47-7.4l125.97,60.62
			c13.26,6.37,21.68,19.77,21.68,34.47V601.53z M459.1,534.92V257.08L276.06,396L459.1,534.92z"/>
	</g>
	<g>
	</g>
</g>
</svg>
